<mxfile host="app.diagrams.net" modified="2022-02-01T18:27:28.714Z" agent="5.0 (Windows)" etag="5fHAucJumrvUeqiRHJyU" version="16.5.2" type="github">
  <diagram id="aFmRTiPEveCHjwJSOjMw" name="Page-1">
    <mxGraphModel dx="1038" dy="509" grid="1" gridSize="10" guides="1" tooltips="1" connect="1" arrows="1" fold="1" page="1" pageScale="1" pageWidth="850" pageHeight="1100" math="0" shadow="0">
      <root>
        <mxCell id="0" />
        <mxCell id="1" parent="0" />
      </root>
    </mxGraphModel>
  </diagram>
</mxfile>
